# xmcd
#
# Track frame offsets:
# 150
# 9935
# 20894
# 36113
# 49672
# 62381
# 78014
# 99502
# 116326
# 137033
# 162385
# 178636
# 201074
# 221277
# 246099
# 271269
# 289295
# 315453
#
# Disc length: 4455 seconds
#
# Revision: 0
# Processed by: cddbd v1.5.2PL0 Copyright (c) Steve Scherf et al.
# Submitted via: Audion 3.0.2 (http://www.panic.com/audion/)
#
DISCID=ec116512
DTITLE=Nino Ferrer - nino ferrer
DYEAR=1900
DGENRE=
TTITLE0=Oh he hein bon
TTITLE1=Mirza
TTITLE2=je veux etre noir
TTITLE3=les cornichons
TTITLE4=le telefon
TTITLE5=pour oublier
TTITLE6=x
TTITLE7=x
TTITLE8=le sud
TTITLE9=x
TTITLE10=x
TTITLE11=x
TTITLE12=x
TTITLE13=x
TTITLE14=x
TTITLE15=x
TTITLE16=x
TTITLE17=x
EXTD=
EXTT0=
EXTT1=
EXTT2=
EXTT3=
EXTT4=
EXTT5=
EXTT6=
EXTT7=
EXTT8=
EXTT9=
EXTT10=
EXTT11=
EXTT12=
EXTT13=
EXTT14=
EXTT15=
EXTT16=
EXTT17=
PLAYORDER=
